<?xml version="1.0" standalone="no"?><!DOCTYPE svg PUBLIC "-//W3C//DTD SVG 1.1//EN" "http://www.w3.org/Graphics/SVG/1.1/DTD/svg11.dtd"><svg t="1499392820684" class="icon" style="" viewBox="0 0 1024 1024" version="1.1" xmlns="http://www.w3.org/2000/svg" p-id="3982" xmlns:xlink="http://www.w3.org/1999/xlink" width="16" height="16"><defs><style type="text/css"></style></defs><path d="M815.53 959.47H195.138c-32.114 0-65.541-14.132-90.842-39.432-25.299-25.3-40.307-57.85-40.307-89.965V185.22c0-33.148 15.633-63.797 43.115-85.248 24.101-18.814 55.688-29.754 88.035-29.754h336.699c16.888 0 30.58 13.81 30.58 30.7s-13.692 30.699-30.58 30.699h-336.7c-33.18 0-69.75 21.06-69.75 53.603v644.855c0 33.53 36.22 67.998 69.75 67.998H815.53c32.542 0 51.755-34.817 51.755-67.998v-332.62c0-16.889 13.81-30.58 30.699-30.58s30.7 13.691 30.7 30.58v332.62c0 32.348-10.016 63.056-28.828 87.158-21.452 27.482-51.177 42.237-84.326 42.237z" fill="" p-id="3983"></path><path d="M488.65 550.213c-9.913 0-19.826-3.782-27.39-11.346-15.126-15.127-15.126-39.65 0-54.777L870.335 75.017c15.127-15.127 39.652-15.127 54.779 0s15.126 39.65 0 54.776L516.039 538.867c-7.563 7.564-17.477 11.346-27.389 11.346z" fill="" p-id="3984"></path></svg>